<svg xmlns="http://www.w3.org/2000/svg" xmlns:xlink="http://www.w3.org/1999/xlink" width="1000" zoomAndPan="magnify" viewBox="0 0 750 749.999995" height="1000" preserveAspectRatio="xMidYMid meet" version="1.0"><defs><clipPath id="29cba15cdd"><path d="M 383.246094 146.050781 L 437.996094 146.050781 L 437.996094 446.050781 L 383.246094 446.050781 Z M 383.246094 146.050781 " clip-rule="nonzero"/></clipPath></defs><path fill="#000000" d="M 751.304688 376.304688 C 751.304688 382.445312 751.15625 388.578125 750.855469 394.707031 C 750.554688 400.835938 750.101562 406.957031 749.5 413.0625 C 748.898438 419.171875 748.148438 425.261719 747.246094 431.332031 C 746.347656 437.402344 745.296875 443.445312 744.101562 449.464844 C 742.902344 455.484375 741.558594 461.472656 740.066406 467.425781 C 738.578125 473.378906 736.941406 479.289062 735.160156 485.164062 C 733.378906 491.035156 731.453125 496.863281 729.386719 502.640625 C 727.316406 508.417969 725.109375 514.144531 722.761719 519.8125 C 720.414062 525.484375 717.925781 531.09375 715.300781 536.640625 C 712.679688 542.1875 709.921875 547.667969 707.027344 553.082031 C 704.132812 558.492188 701.109375 563.832031 697.953125 569.09375 C 694.800781 574.359375 691.515625 579.542969 688.109375 584.644531 C 684.699219 589.75 681.164062 594.765625 677.507812 599.695312 C 673.851562 604.625 670.078125 609.460938 666.183594 614.203125 C 662.292969 618.949219 658.285156 623.59375 654.164062 628.140625 C 650.042969 632.6875 645.8125 637.132812 641.472656 641.472656 C 637.132812 645.8125 632.6875 650.042969 628.140625 654.164062 C 623.59375 658.285156 618.949219 662.292969 614.203125 666.1875 C 609.460938 670.078125 604.625 673.855469 599.695312 677.507812 C 594.765625 681.164062 589.75 684.699219 584.644531 688.109375 C 579.542969 691.515625 574.359375 694.800781 569.09375 697.953125 C 563.832031 701.109375 558.492188 704.132812 553.082031 707.027344 C 547.667969 709.921875 542.1875 712.679688 536.640625 715.300781 C 531.09375 717.925781 525.484375 720.414062 519.8125 722.761719 C 514.144531 725.109375 508.417969 727.316406 502.640625 729.386719 C 496.863281 731.453125 491.035156 733.378906 485.164062 735.160156 C 479.289062 736.941406 473.378906 738.578125 467.425781 740.066406 C 461.472656 741.558594 455.484375 742.902344 449.464844 744.101562 C 443.445312 745.296875 437.402344 746.347656 431.332031 747.246094 C 425.261719 748.148438 419.171875 748.898438 413.0625 749.5 C 406.957031 750.101562 400.835938 750.554688 394.707031 750.855469 C 388.578125 751.15625 382.445312 751.304688 376.304688 751.304688 C 370.167969 751.304688 364.035156 751.15625 357.90625 750.855469 C 351.777344 750.554688 345.65625 750.101562 339.550781 749.5 C 333.441406 748.898438 327.351562 748.148438 321.28125 747.246094 C 315.210938 746.347656 309.167969 745.296875 303.148438 744.101562 C 297.128906 742.902344 291.140625 741.558594 285.1875 740.066406 C 279.234375 738.578125 273.324219 736.941406 267.449219 735.160156 C 261.578125 733.378906 255.75 731.453125 249.972656 729.386719 C 244.195312 727.316406 238.46875 725.109375 232.800781 722.761719 C 227.128906 720.414062 221.519531 717.925781 215.972656 715.300781 C 210.425781 712.679688 204.945312 709.921875 199.53125 707.027344 C 194.121094 704.132812 188.78125 701.109375 183.519531 697.953125 C 178.253906 694.800781 173.070312 691.515625 167.96875 688.109375 C 162.863281 684.699219 157.847656 681.164062 152.917969 677.507812 C 147.988281 673.851562 143.152344 670.078125 138.410156 666.183594 C 133.664062 662.292969 129.019531 658.285156 124.472656 654.164062 C 119.925781 650.042969 115.480469 645.8125 111.140625 641.472656 C 106.800781 637.132812 102.570312 632.6875 98.449219 628.140625 C 94.328125 623.59375 90.320312 618.949219 86.425781 614.203125 C 82.535156 609.460938 78.757812 604.625 75.105469 599.695312 C 71.449219 594.765625 67.914062 589.75 64.503906 584.644531 C 61.097656 579.542969 57.8125 574.359375 54.660156 569.09375 C 51.503906 563.832031 48.480469 558.492188 45.585938 553.082031 C 42.691406 547.667969 39.933594 542.1875 37.3125 536.640625 C 34.6875 531.09375 32.199219 525.484375 29.851562 519.8125 C 27.503906 514.144531 25.296875 508.417969 23.226562 502.640625 C 21.160156 496.863281 19.234375 491.035156 17.453125 485.164062 C 15.671875 479.289062 14.035156 473.378906 12.542969 467.425781 C 11.054688 461.472656 9.710938 455.484375 8.511719 449.464844 C 7.316406 443.445312 6.265625 437.402344 5.367188 431.332031 C 4.464844 425.261719 3.714844 419.171875 3.113281 413.0625 C 2.511719 406.957031 2.058594 400.835938 1.757812 394.707031 C 1.457031 388.578125 1.304688 382.445312 1.304688 376.304688 C 1.304688 370.167969 1.457031 364.035156 1.757812 357.90625 C 2.058594 351.777344 2.511719 345.65625 3.113281 339.550781 C 3.714844 333.441406 4.464844 327.351562 5.367188 321.28125 C 6.265625 315.210938 7.316406 309.167969 8.511719 303.148438 C 9.710938 297.128906 11.054688 291.140625 12.542969 285.1875 C 14.035156 279.234375 15.671875 273.324219 17.453125 267.449219 C 19.234375 261.578125 21.160156 255.75 23.226562 249.972656 C 25.296875 244.195312 27.503906 238.46875 29.851562 232.800781 C 32.199219 227.128906 34.6875 221.519531 37.3125 215.972656 C 39.933594 210.425781 42.691406 204.945312 45.585938 199.53125 C 48.480469 194.121094 51.503906 188.78125 54.660156 183.519531 C 57.8125 178.253906 61.097656 173.070312 64.503906 167.96875 C 67.914062 162.863281 71.449219 157.847656 75.105469 152.917969 C 78.757812 147.988281 82.535156 143.152344 86.425781 138.410156 C 90.320312 133.664062 94.328125 129.019531 98.449219 124.472656 C 102.570312 119.925781 106.800781 115.480469 111.140625 111.140625 C 115.480469 106.800781 119.925781 102.570312 124.472656 98.449219 C 129.019531 94.328125 133.664062 90.320312 138.410156 86.425781 C 143.152344 82.535156 147.988281 78.757812 152.917969 75.105469 C 157.847656 71.449219 162.863281 67.914062 167.96875 64.503906 C 173.070312 61.097656 178.253906 57.8125 183.519531 54.660156 C 188.78125 51.503906 194.121094 48.480469 199.53125 45.585938 C 204.945312 42.691406 210.425781 39.933594 215.972656 37.3125 C 221.519531 34.6875 227.128906 32.199219 232.800781 29.851562 C 238.46875 27.503906 244.195312 25.296875 249.972656 23.226562 C 255.75 21.160156 261.578125 19.234375 267.449219 17.453125 C 273.324219 15.671875 279.234375 14.035156 285.1875 12.542969 C 291.140625 11.054688 297.128906 9.710938 303.148438 8.511719 C 309.167969 7.316406 315.210938 6.265625 321.28125 5.367188 C 327.351562 4.464844 333.441406 3.714844 339.550781 3.113281 C 345.65625 2.511719 351.777344 2.058594 357.90625 1.757812 C 364.035156 1.457031 370.167969 1.304688 376.304688 1.304688 C 382.445312 1.304688 388.578125 1.457031 394.707031 1.757812 C 400.835938 2.058594 406.957031 2.511719 413.0625 3.113281 C 419.171875 3.714844 425.261719 4.464844 431.332031 5.367188 C 437.402344 6.265625 443.445312 7.316406 449.464844 8.511719 C 455.484375 9.710938 461.472656 11.054688 467.425781 12.542969 C 473.378906 14.035156 479.289062 15.671875 485.164062 17.453125 C 491.035156 19.234375 496.863281 21.160156 502.640625 23.226562 C 508.417969 25.296875 514.144531 27.503906 519.8125 29.851562 C 525.484375 32.199219 531.09375 34.6875 536.640625 37.3125 C 542.1875 39.933594 547.667969 42.691406 553.082031 45.585938 C 558.492188 48.480469 563.832031 51.503906 569.09375 54.660156 C 574.359375 57.8125 579.542969 61.097656 584.644531 64.503906 C 589.75 67.914062 594.765625 71.449219 599.695312 75.105469 C 604.625 78.757812 609.460938 82.535156 614.203125 86.425781 C 618.949219 90.320312 623.59375 94.328125 628.140625 98.449219 C 632.6875 102.570312 637.132812 106.800781 641.472656 111.140625 C 645.8125 115.480469 650.042969 119.925781 654.164062 124.472656 C 658.285156 129.019531 662.292969 133.664062 666.183594 138.410156 C 670.078125 143.152344 673.851562 147.988281 677.507812 152.917969 C 681.164062 157.847656 684.699219 162.863281 688.109375 167.96875 C 691.515625 173.070312 694.800781 178.253906 697.953125 183.519531 C 701.109375 188.78125 704.132812 194.121094 707.027344 199.53125 C 709.921875 204.945312 712.679688 210.425781 715.300781 215.972656 C 717.925781 221.519531 720.414062 227.128906 722.761719 232.800781 C 725.109375 238.46875 727.316406 244.195312 729.386719 249.972656 C 731.453125 255.75 733.378906 261.578125 735.160156 267.449219 C 736.941406 273.324219 738.578125 279.234375 740.066406 285.1875 C 741.558594 291.140625 742.902344 297.128906 744.101562 303.148438 C 745.296875 309.167969 746.347656 315.210938 747.246094 321.28125 C 748.148438 327.351562 748.898438 333.441406 749.5 339.550781 C 750.101562 345.65625 750.554688 351.777344 750.855469 357.90625 C 751.15625 364.035156 751.304688 370.167969 751.304688 376.304688 Z M 751.304688 376.304688 " fill-opacity="1" fill-rule="nonzero"/><path fill="#ffffff" d="M 354.667969 487.550781 L 354.667969 188.152344 C 354.667969 187.554688 354.609375 186.957031 354.492188 186.367188 C 354.375 185.78125 354.203125 185.207031 353.972656 184.652344 C 353.742188 184.097656 353.460938 183.570312 353.128906 183.070312 C 352.792969 182.574219 352.414062 182.109375 351.988281 181.6875 C 351.566406 181.261719 351.101562 180.882812 350.605469 180.546875 C 350.105469 180.214844 349.578125 179.933594 349.023438 179.703125 C 348.46875 179.472656 347.894531 179.300781 347.308594 179.183594 C 346.71875 179.066406 346.125 179.007812 345.523438 179.007812 L 271.777344 179.007812 C 271.175781 179.007812 270.582031 179.066406 269.992188 179.183594 C 269.402344 179.300781 268.832031 179.472656 268.277344 179.703125 C 267.722656 179.933594 267.195312 180.214844 266.695312 180.546875 C 266.195312 180.882812 265.734375 181.261719 265.308594 181.6875 C 264.886719 182.109375 264.503906 182.574219 264.171875 183.070312 C 263.839844 183.570312 263.558594 184.097656 263.328125 184.652344 C 263.097656 185.207031 262.921875 185.78125 262.804688 186.367188 C 262.6875 186.957031 262.628906 187.554688 262.628906 188.152344 L 262.628906 564.460938 C 262.628906 565.058594 262.6875 565.65625 262.804688 566.246094 C 262.921875 566.832031 263.097656 567.40625 263.328125 567.960938 C 263.558594 568.515625 263.839844 569.042969 264.171875 569.542969 C 264.503906 570.039062 264.886719 570.503906 265.308594 570.925781 C 265.734375 571.351562 266.195312 571.730469 266.695312 572.066406 C 267.195312 572.398438 267.722656 572.679688 268.277344 572.910156 C 268.832031 573.140625 269.402344 573.3125 269.992188 573.429688 C 270.582031 573.546875 271.175781 573.605469 271.777344 573.605469 L 532.917969 573.605469 C 533.519531 573.605469 534.113281 573.546875 534.703125 573.429688 C 535.292969 573.3125 535.863281 573.140625 536.417969 572.910156 C 536.972656 572.679688 537.5 572.398438 538 572.066406 C 538.5 571.730469 538.960938 571.351562 539.386719 570.925781 C 539.808594 570.503906 540.1875 570.039062 540.523438 569.542969 C 540.855469 569.042969 541.136719 568.515625 541.367188 567.960938 C 541.597656 567.40625 541.769531 566.832031 541.886719 566.246094 C 542.003906 565.65625 542.0625 565.058594 542.0625 564.460938 L 542.0625 496.699219 C 542.0625 496.097656 542.003906 495.503906 541.886719 494.914062 C 541.769531 494.324219 541.597656 493.753906 541.367188 493.199219 C 541.136719 492.644531 540.855469 492.117188 540.523438 491.617188 C 540.1875 491.117188 539.808594 490.65625 539.386719 490.230469 C 538.960938 489.804688 538.5 489.425781 538 489.09375 C 537.5 488.761719 536.972656 488.476562 536.417969 488.25 C 535.863281 488.019531 535.292969 487.84375 534.703125 487.726562 C 534.113281 487.609375 533.519531 487.550781 532.917969 487.550781 Z M 354.667969 487.550781 " fill-opacity="1" fill-rule="evenodd"/><g clip-path="url(#29cba15cdd)"><path fill="#000000" d="M 434.613281 446.050781 L 386.632812 446.050781 C 384.699219 446.050781 383.292969 444.46875 383.292969 442.535156 L 383.292969 149.390625 C 383.292969 148.511719 383.644531 147.808594 384.171875 147.105469 C 384.699219 146.226562 385.753906 146.050781 386.632812 146.050781 L 434.613281 146.050781 C 436.546875 146.050781 437.953125 147.457031 437.953125 149.390625 L 437.953125 442.535156 C 437.953125 443.589844 437.425781 444.292969 436.898438 444.996094 C 436.546875 445.699219 435.492188 446.050781 434.613281 446.050781 Z M 434.613281 446.050781 " fill-opacity="1" fill-rule="evenodd"/></g></svg>